<svg width="150" height="150" viewBox="0 0 150 150" fill="none" xmlns="http://www.w3.org/2000/svg">
<path d="M62.5 37.5H87.5C87.5 34.1848 86.183 31.0054 83.8388 28.6612C81.4946 26.317 78.3152 25 75 25C71.6848 25 68.5054 26.317 66.1612 28.6612C63.817 31.0054 62.5 34.1848 62.5 37.5V37.5ZM50 37.5C50 30.8696 52.6339 24.5107 57.3223 19.8223C62.0107 15.1339 68.3696 12.5 75 12.5C81.6304 12.5 87.9893 15.1339 92.6777 19.8223C97.3661 24.5107 100 30.8696 100 37.5H131.25C132.908 37.5 134.497 38.1585 135.669 39.3306C136.842 40.5027 137.5 42.0924 137.5 43.75C137.5 45.4076 136.842 46.9973 135.669 48.1694C134.497 49.3415 132.908 50 131.25 50H125.738L120.2 114.625C119.668 120.865 116.812 126.679 112.199 130.915C107.586 135.151 101.551 137.501 95.2875 137.5H54.7125C48.4494 137.501 42.4142 135.151 37.8009 130.915C33.1876 126.679 30.3324 120.865 29.8 114.625L24.2625 50H18.75C17.0924 50 15.5027 49.3415 14.3306 48.1694C13.1585 46.9973 12.5 45.4076 12.5 43.75C12.5 42.0924 13.1585 40.5027 14.3306 39.3306C15.5027 38.1585 17.0924 37.5 18.75 37.5H50ZM93.75 75C93.75 73.3424 93.0915 71.7527 91.9194 70.5806C90.7473 69.4085 89.1576 68.75 87.5 68.75C85.8424 68.75 84.2527 69.4085 83.0806 70.5806C81.9085 71.7527 81.25 73.3424 81.25 75V100C81.25 101.658 81.9085 103.247 83.0806 104.419C84.2527 105.592 85.8424 106.25 87.5 106.25C89.1576 106.25 90.7473 105.592 91.9194 104.419C93.0915 103.247 93.75 101.658 93.75 100V75ZM62.5 68.75C64.1576 68.75 65.7473 69.4085 66.9194 70.5806C68.0915 71.7527 68.75 73.3424 68.75 75V100C68.75 101.658 68.0915 103.247 66.9194 104.419C65.7473 105.592 64.1576 106.25 62.5 106.25C60.8424 106.25 59.2527 105.592 58.0806 104.419C56.9085 103.247 56.25 101.658 56.25 100V75C56.25 73.3424 56.9085 71.7527 58.0806 70.5806C59.2527 69.4085 60.8424 68.75 62.5 68.75V68.75ZM42.25 113.563C42.5163 116.684 43.9448 119.591 46.2528 121.709C48.5607 123.828 51.5799 125.002 54.7125 125H95.2875C98.418 124.999 101.434 123.823 103.739 121.705C106.045 119.587 107.471 116.682 107.738 113.563L113.188 50H36.8125L42.2625 113.563H42.25Z" fill="#D43636"/>
</svg>
