<svg width="150" height="150" viewBox="0 0 150 150" fill="none" xmlns="http://www.w3.org/2000/svg">
<path d="M27.625 128.619C26.7579 128.617 25.9005 128.435 25.1075 128.085C24.3145 127.734 23.6032 127.222 23.0187 126.581C22.4237 125.946 21.9697 125.192 21.6864 124.369C21.4031 123.547 21.297 122.673 21.375 121.806L22.9062 104.969L93.6437 34.2563L115.75 56.3563L45.0312 127.063L28.1937 128.594C28.0047 128.611 27.8149 128.62 27.625 128.619V128.619ZM120.162 51.9375L98.0625 29.8375L111.319 16.5813C111.899 16.0002 112.589 15.5392 113.347 15.2246C114.106 14.9101 114.919 14.7482 115.741 14.7482C116.562 14.7482 117.375 14.9101 118.134 15.2246C118.893 15.5392 119.582 16.0002 120.162 16.5813L133.419 29.8375C134 30.418 134.461 31.1073 134.775 31.866C135.09 32.6248 135.252 33.4381 135.252 34.2594C135.252 35.0807 135.09 35.894 134.775 36.6528C134.461 37.4115 134 38.1008 133.419 38.6813L120.169 51.9313L120.162 51.9375V51.9375Z" fill="#0FA958"/>
</svg>
